<?xml version="1.0" encoding="UTF-8"?>
<svg id="Layer_1" data-name="Layer 1" xmlns="http://www.w3.org/2000/svg" xmlns:xlink="http://www.w3.org/1999/xlink" viewBox="0 0 574.3 189.54">
  <defs>
    <style>
      .cls-1 {
        fill: #2e2b28;
      }

      .cls-1, .cls-2, .cls-3, .cls-4, .cls-5 {
        fill-rule: evenodd;
      }

      .cls-2, .cls-6 {
        fill: url(#linear-gradient-3);
        opacity: .5;
      }

      .cls-7 {
        fill: url(#linear-gradient-2);
      }

      .cls-3, .cls-8 {
        fill: #e6ebf6;
      }

      .cls-4 {
        fill: #ec5f4f;
      }

      .cls-9 {
        fill: #fff;
      }

      .cls-5 {
        fill: #f8f9fa;
      }

      .cls-10 {
        fill: url(#linear-gradient);
      }
    </style>
    <linearGradient id="linear-gradient" x1="32.77" y1="103.54" x2="131.18" y2="148.3" gradientTransform="translate(0)" gradientUnits="userSpaceOnUse">
      <stop offset="0" stop-color="#ea5445"/>
      <stop offset="1" stop-color="#d03345"/>
    </linearGradient>
    <linearGradient id="linear-gradient-2" x1="113.86" y1="116.31" x2="129.64" y2="116.31" xlink:href="#linear-gradient"/>
    <linearGradient id="linear-gradient-3" x1="128.63" y1="73.96" x2="128.65" y2="73.96" gradientTransform="translate(0)" gradientUnits="userSpaceOnUse">
      <stop offset="0" stop-color="#708bc1"/>
      <stop offset="1" stop-color="#e6ebf6"/>
    </linearGradient>
  </defs>
  <path class="cls-5" d="M98.04,23.63c0-3.72-3.01-6.74-6.73-6.74s-6.72,3.02-6.72,6.74c0,2.84,1.77,5.28,4.27,6.26l-1.7,15.95-.18,1.74h8.68s-.18-1.74-.18-1.74l-1.7-15.95c2.51-.98,4.27-3.42,4.27-6.26ZM91.3,27.08c-1.91,0-3.45-1.55-3.45-3.45s1.55-3.45,3.45-3.45,3.45,1.55,3.45,3.45-1.54,3.45-3.45,3.45Z"/>
  <path class="cls-5" d="M128.63,73.94c-1.08-.35-2.16-.71-3.23-1.01-.53-.17-1.02-.31-1.56-.44-1.04-.31-2.1-.58-3.17-.83-2.21-.55-4.48-.99-6.71-1.38-1.07-.19-2.13-.35-3.2-.52-1.02-.16-2.07-.3-3.09-.41h-.03c-1.44-.19-2.87-.36-4.28-.47-.36-.03-.72-.08-1.08-.08-.36-.03-.69-.06-1.04-.08-.17-.03-.33-.03-.5-.03-.85-.08-1.72-.14-2.54-.17-2.38-.13-4.7-.19-6.9-.19-3.09,0-6.43.11-9.85.39-.72.02-1.47.11-2.22.16-.35.03-.71.07-1.07.1-.08.01-.16.02-.24.03-.04,0-.07,0-.1.01h-.02c-.24.03-.49.05-.74.08-.88.08-1.77.19-2.65.3-.11,0-.25.03-.36.06-.66.08-1.32.19-2.02.27-.6.09-1.18.17-1.8.28-.71.11-1.47.25-2.18.39-.03-.03-.08,0-.11.02-.69.09-1.35.22-2.02.36-.25.06-.47.08-.69.17-1.1.19-2.21.44-3.31.71v.03c-.06.03-.11.03-.19.03-.11.02-.25.05-.36.08-.99.22-1.99.49-2.96.77-1.52.41-2.98.88-4.45,1.37.28-3,.83-6.23,1.75-9.24,1.18-3.89,2.98-7.44,5.66-9.78,6.71-5.88,16.71-8.5,25.79-9.08,1.42-.08,2.79-.14,4.14-.14s2.71.06,4.14.14h.03c9.08.61,19.08,3.2,25.79,9.08,2.68,2.35,4.48,5.89,5.66,9.78.91,3.01,1.47,6.24,1.72,9.24Z"/>
  <path class="cls-5" d="M128.63,73.94c-1.08-.35-2.16-.71-3.23-1.01-.53-.17-1.02-.31-1.56-.44-1.04-.31-2.1-.58-3.17-.83-2.21-.55-4.48-.99-6.71-1.38-1.07-.19-2.13-.35-3.2-.52-1.02-.16-2.07-.3-3.09-.41h-.03c-1.44-.19-2.87-.36-4.28-.47-.36-.03-.72-.08-1.08-.08-.36-.03-.69-.06-1.04-.08-.17-.03-.33-.03-.5-.03-.85-.08-1.72-.14-2.54-.17-2.38-.13-4.7-.19-6.9-.19-3.09,0-6.43.11-9.85.39-.72.02-1.47.11-2.22.16-.35.03-.71.07-1.07.1-.08.01-.16.02-.24.03-.04,0-.07,0-.1.01h-.02c-.24.03-.49.05-.74.08-.88.08-1.77.19-2.65.3-.11,0-.25.03-.36.06-.66.08-1.32.19-2.02.27-.6.09-1.18.17-1.8.28-.71.11-1.47.25-2.18.39-.03-.03-.08,0-.11.02-.69.09-1.35.22-2.02.36-.25.06-.47.08-.69.17-1.1.19-2.21.44-3.31.71v.03c-.06.03-.11.03-.19.03-.11.02-.25.05-.36.08-.99.22-1.99.49-2.96.77-1.52.41-2.98.88-4.45,1.37.28-3,.83-6.23,1.75-9.24,1.18-3.89,2.98-7.44,5.66-9.78,6.71-5.88,16.71-8.5,25.79-9.08,1.42-.08,2.79-.14,4.14-.14s2.71.06,4.14.14h.03c9.08.61,19.08,3.2,25.79,9.08,2.68,2.35,4.48,5.89,5.66,9.78.91,3.01,1.47,6.24,1.72,9.24Z"/>
  <polygon class="cls-8" points="128.65 73.94 128.65 73.97 128.63 73.94 128.65 73.94"/>
  <path class="cls-3" d="M128.63,73.94l.02.03v-.03s-.02,0-.02,0Z"/>
  <path class="cls-5" d="M149.32,75.28c-5.97-4.56-13.7-8.07-22.4-10.58-2.96-.86-5.99-1.61-9.14-2.22h-.03c-1.88-.35-3.75-.68-5.69-.99-.77-.11-1.52-.22-2.29-.3-2.54-.36-5.14-.6-7.76-.8-.83-.08-1.66-.13-2.52-.16-1.37-.08-2.79-.17-4.16-.19-1.32-.03-2.68-.06-4.03-.06s-2.65.03-3.97.06c-5.06.13-10.09.55-14.97,1.21-1.47.19-2.9.41-4.34.66-1.04.16-2.1.35-3.15.57h-.03c-3.15.61-6.2,1.35-9.13,2.22-8.7,2.51-16.46,6.02-22.43,10.58-18.27,13.86-18.5,66.35-1.96,80.49,13.15,11.24,36.56,16.88,59.98,16.88,23.44,0,46.87-5.64,60.01-16.88,16.51-14.14,16.32-66.64-1.99-80.49ZM77.91,69s0-.01.01-.01c.08,0,.15-.01.23-.02-.08.01-.16.02-.24.03Z"/>
  <g>
    <path class="cls-1" d="M66.41,120.03c-1.1,1.25-2.75,1.98-4.39,1.94l-1.35-.03h-.68s-.6-.06-.6-.06c-.81-.1-1.58-.38-2.26-.81-1.36-.85-2.31-2.3-2.56-3.86-.24-1.57.16-3.24,1.2-4.47,1.03-1.22,2.58-2.02,4.21-2.04l1.35-.03h.68s.61.01.61.01c.81.07,1.62.33,2.33.74,1.44.81,2.48,2.31,2.75,3.95.29,1.65-.19,3.42-1.3,4.66Z"/>
    <path class="cls-10" d="M68.67,115.22c-.28-1.94-1.47-3.71-3.14-4.74-.83-.52-1.79-.86-2.77-.98l-.73-.06h-.68s-1.35-.03-1.35-.03c-2-.04-4,.84-5.32,2.38-1.33,1.52-1.95,3.65-1.61,5.65.31,2.02,1.59,3.83,3.34,4.83.86.5,1.85.81,2.84.9l.74.03h.68s1.35-.04,1.35-.04c1.99-.02,3.9-.97,5.14-2.48,1.26-1.51,1.8-3.54,1.51-5.46ZM62.02,121.97l-1.35-.03h-.68s-.6-.06-.6-.06c-.81-.1-1.58-.38-2.26-.81-1.36-.85-2.31-2.3-2.56-3.86-.24-1.57.16-3.24,1.2-4.47,1.03-1.22,2.58-2.02,4.21-2.04l1.35-.03h.68s.61.01.61.01c.81.07,1.62.33,2.33.74,1.44.81,2.48,2.31,2.75,3.95.29,1.65-.19,3.42-1.3,4.66-1.1,1.25-2.75,1.98-4.39,1.94Z"/>
  </g>
  <g>
    <path class="cls-7" d="M129.54,115.17c-.31-2.02-1.6-3.82-3.34-4.83-.86-.5-1.85-.81-2.84-.9l-.74-.03h-.68s-1.35.04-1.35.04c-1.99.02-3.9.97-5.15,2.48-1.25,1.51-1.8,3.54-1.5,5.47.28,1.93,1.47,3.7,3.14,4.73.83.52,1.79.86,2.77.99l.73.05h.68s1.35.04,1.35.04c1.99.03,4-.84,5.32-2.39,1.33-1.52,1.95-3.65,1.61-5.65ZM122.62,121.93l-1.35.02h-.68s-.61-.01-.61-.01c-.81-.07-1.62-.32-2.33-.74-1.44-.81-2.48-2.31-2.75-3.95-.29-1.65.19-3.41,1.3-4.66,1.1-1.25,2.75-1.98,4.39-1.94l1.35.03h.68s.6.06.6.06c.8.1,1.58.39,2.26.81,1.36.85,2.31,2.3,2.55,3.87.25,1.57-.15,3.24-1.19,4.47-1.03,1.22-2.58,2.01-4.21,2.04Z"/>
    <path class="cls-1" d="M116.19,112.6c1.1-1.25,2.75-1.98,4.39-1.94l1.35.03h.68s.6.06.6.06c.81.1,1.58.38,2.26.81,1.36.85,2.31,2.3,2.56,3.86.24,1.57-.16,3.24-1.2,4.47-1.03,1.22-2.58,2.02-4.21,2.04l-1.35.03h-.68s-.61-.01-.61-.01c-.81-.07-1.62-.33-2.33-.74-1.44-.81-2.48-2.31-2.75-3.95-.29-1.65.19-3.42,1.3-4.66Z"/>
  </g>
  <polygon class="cls-6" points="128.65 73.94 128.65 73.97 128.63 73.94 128.65 73.94"/>
  <path class="cls-2" d="M128.63,73.94l.02.03v-.03s-.02,0-.02,0Z"/>
  <path class="cls-4" d="M144.01,114.9c-.03.47-.08.97-.11,1.46-.69-7.68-4.03-14.97-10.14-18.17-2.1-1.1-4.5-2.1-7.13-2.95-2.29-.77-4.75-1.44-7.35-1.99-8.4-1.88-18.2-2.82-28-2.82s-19.61.94-28,2.82c-2.6.55-5.05,1.22-7.32,1.99-2.62.86-5.03,1.85-7.13,2.95-6.1,3.2-9.44,10.49-10.16,18.17-.03-.47-.08-.97-.11-1.46-.44-9.22,2.93-19.03,10.27-22.89,1.71-.91,3.62-1.74,5.69-2.46,2.26-.83,4.72-1.57,7.35-2.18,8.7-2.1,19.06-3.15,29.41-3.15,10.36,0,20.71,1.05,29.41,3.15,2.62.61,5.11,1.35,7.37,2.18,2.07.72,3.98,1.55,5.69,2.46,7.35,3.87,10.72,13.64,10.25,22.89Z"/>
  <path class="cls-4" d="M144.01,117.8c.03.11,0,.25,0,.39.33,8.59-2.65,17.32-8.81,20.99-9.61,5.72-26.76,8.59-43.91,8.59-17.12,0-34.27-2.87-43.91-8.59-6.13-3.67-9.11-12.37-8.81-20.99v-.39c.03-.5.08-.97.11-1.44.66,7.04,3.59,13.56,8.7,16.6,9.64,5.74,26.79,8.59,43.91,8.59,17.15,0,34.3-2.84,43.91-8.59,5.11-3.04,8.04-9.56,8.7-16.6.06.47.08.94.11,1.44Z"/>
  <g>
    <g>
      <path class="cls-9" d="M224.52,128.75h-4.64l-.12,3.22c-1.51-2.27-3.89-3.62-7.2-3.62-5.81,0-10.27,4.5-10.27,11.23s4.46,11.03,10.27,11.03c3.31,0,5.69-1.36,7.2-3.62l.12,3.22h4.64c.31,0,.57-.26.57-.57v-20.3c0-.31-.26-.57-.57-.57ZM213.8,145.95c-3.55,0-5.89-2.59-5.89-6.45s2.34-6.53,5.89-6.53,5.89,2.62,5.89,6.49-2.39,6.5-5.89,6.5Z"/>
      <path class="cls-9" d="M241.04,145.95c-3.66,0-6.05-2.59-6.05-6.5s2.43-6.49,6.02-6.49c1.79,0,3.1.55,4.22,1.51l3.06-3.66c-1.98-1.56-4.49-2.47-7.36-2.47-6.93,0-11.55,4.46-11.55,11.11s4.59,11.15,11.43,11.15c3.23,0,6.13-.95,8.17-2.98l-3.07-3.59c-1.24,1.31-2.86,1.92-4.86,1.92Z"/>
      <path class="cls-9" d="M272.84,128.75h-4.63l-.12,3.22c-1.51-2.27-3.9-3.62-7.2-3.62-5.81,0-10.28,4.5-10.28,11.23s4.47,11.03,10.28,11.03c3.3,0,5.69-1.36,7.2-3.62l.12,3.22h4.63c.33,0,.59-.26.59-.57v-20.3c0-.31-.26-.57-.59-.57ZM262.12,145.95c-3.54,0-5.89-2.59-5.89-6.45s2.35-6.53,5.89-6.53,5.9,2.62,5.9,6.49-2.39,6.5-5.9,6.5Z"/>
      <path class="cls-9" d="M299.94,120.57h-4.24c-.33,0-.59.26-.59.59v9.11c0,.52-.62.77-.98.41-1.49-1.48-3.53-2.33-6.15-2.33-5.82,0-10.28,4.5-10.28,11.23s4.46,11.03,10.28,11.03c3.3,0,5.69-1.36,7.2-3.62l.12,3.22h4.63c.33,0,.59-.26.59-.57v-28.47c0-.33-.26-.59-.59-.59ZM289.21,145.95c-3.54,0-5.89-2.59-5.89-6.45s2.35-6.53,5.89-6.53,5.9,2.62,5.9,6.49-2.4,6.5-5.9,6.5Z"/>
      <path class="cls-9" d="M315.55,128.35c-6.44,0-10.71,4.5-10.71,11.27s4.38,10.99,10.94,10.99c4.07,0,7.45-1.83,9.36-4.7l-4.18-2.12c-1.28,1.55-3.07,2.55-5.26,2.55-3.15,0-4.74-1.91-5.14-4.94h15.53c.08-.64.16-1.51.16-2.27,0-6.5-4.3-10.79-10.72-10.79ZM310.57,137.74c.44-3.26,2.12-5.13,4.98-5.13s4.62,1.87,5.02,5.13h-10Z"/>
      <path class="cls-9" d="M355.55,128.35c-2.61,0-4.94.92-6.5,2.68-.24.27-.63.27-.86-.01-1.41-1.69-3.51-2.67-6.07-2.67s-4.89,1-6.41,2.94l-.08-2.54h-4.63c-.33,0-.59.26-.59.57v20.3c0,.31.26.57.59.57h4.25c.31,0,.57-.26.57-.57v-12.04c0-2.79,1.76-4.62,4.38-4.62s4.43,1.83,4.43,4.62v12.04c0,.31.26.57.57.57h4.25c.33,0,.59-.26.59-.57v-12.04c0-2.79,1.76-4.62,4.38-4.62s4.41,1.83,4.41,4.62v12.04c0,.31.27.57.59.57h4.25c.33,0,.59-.26.59-.57v-12.92c0-5.02-3.5-8.36-8.72-8.36Z"/>
      <path class="cls-9" d="M388.75,128.75h-4.25c-.31,0-.57.26-.57.57v11.4c0,3.05-2.67,5.69-5.66,5.13-2.18-.41-3.58-2.1-3.58-4.49v-12.04c0-.31-.26-.57-.59-.57h-4.25c-.33,0-.59.26-.59.57v12.87c0,5.07,3.31,8.41,8.17,8.41,2.64,0,4.94-1,6.5-2.86v.39c0,3.99-2.59,6.57-6.41,6.57-2.75,0-5.1-.67-7.26-2.31l-1.08,3.87c-.07.23.02.5.22.64,2.16,1.63,5.02,2.46,8.24,2.46,7.04,0,11.7-4.43,11.7-11.19v-18.85c0-.31-.26-.57-.59-.57Z"/>
    </g>
    <path class="cls-9" d="M233.46,106.16v.83c0,.68.24,1.25.72,1.73.47.49,1.05.72,1.73.72h4.93c.67,0,1.25-.24,1.73-.72.47-.49.72-1.05.72-1.73v-.83c0-1.81-.32-3.52-.93-5.15-.6-1.63-1.47-3.09-2.56-4.39-.08-.08-.12-.18-.12-.3s.04-.22.12-.33c1.09-1.27,1.96-2.73,2.56-4.36.62-1.63.93-3.34.93-5.14v-1.66c0-2.11-.51-4.05-1.55-5.78-1.02-1.73-2.42-3.13-4.15-4.16-1.75-1.04-3.68-1.55-5.78-1.55h-27.07c-.67,0-1.25.24-1.73.72-.47.47-.72,1.06-.72,1.75v31.17c0,.68.25,1.25.72,1.73.49.49,1.06.72,1.73.72h4.93c.67,0,1.25-.24,1.73-.72.47-.49.72-1.05.72-1.73v-4.93c0-.22.08-.41.24-.56s.35-.25.59-.25h15.58c1.37,0,2.52.49,3.48,1.44.97.96,1.44,2.11,1.44,3.47ZM212.95,91.39c-.24,0-.43-.08-.59-.24-.16-.17-.24-.35-.24-.58v-6.57c0-.22.08-.41.24-.56.16-.17.35-.25.59-.25h18.86c.45,0,.84.17,1.17.49.32.32.47.71.47,1.16v1.66c0,1.34-.47,2.5-1.44,3.45-.96.96-2.11,1.45-3.48,1.45h-15.58Z"/>
    <path class="cls-9" d="M286.28,103.73c1.04-1.73,1.55-3.65,1.55-5.77v-13.12c0-2.11-.51-4.05-1.55-5.78-1.04-1.73-2.42-3.13-4.15-4.16-1.75-1.04-3.66-1.55-5.77-1.55h-18.05c-2.11,0-4.03.51-5.77,1.55-1.73,1.04-3.13,2.43-4.16,4.16-1.02,1.73-1.55,3.66-1.55,5.78v13.12c0,2.11.53,4.03,1.55,5.77,1.04,1.73,2.43,3.13,4.16,4.16,1.73,1.04,3.65,1.55,5.77,1.55h18.05c2.1,0,4.02-.51,5.77-1.55,1.73-1.04,3.11-2.43,4.15-4.16ZM276.36,83.2c.45,0,.84.17,1.16.49.32.32.49.71.49,1.16v13.12c0,.46-.17.84-.49,1.17-.32.32-.71.47-1.16.47h-18.05c-.46,0-.84-.16-1.17-.47-.32-.33-.47-.71-.47-1.17v-13.12c0-.45.16-.84.47-1.16.33-.32.71-.49,1.17-.49h18.05Z"/>
    <path class="cls-9" d="M332.37,97.87c-.05-2.44-.74-4.61-2.05-6.48,1.31-1.87,2-4.03,2.05-6.48,0-2.14-.53-4.07-1.56-5.82-1.05-1.75-2.46-3.14-4.23-4.19-1.76-1.04-3.7-1.56-5.83-1.56h-26.93c-.67,0-1.25.24-1.72.72-.49.47-.72,1.06-.72,1.75v31.17c0,.68.24,1.25.72,1.73.47.49,1.05.72,1.72.72h26.93c2.13,0,4.07-.53,5.83-1.56,1.77-1.05,3.18-2.44,4.23-4.18,1.04-1.73,1.56-3.68,1.56-5.83ZM322.53,97.57s.01.01,0,.03h0s.01.03.01.04c0,.22-.04.43-.12.66-.01.04-.03.08-.04.12-.08.26-.2.53-.33.8-.32.62-.71.93-1.17.93h-18.85c-.24,0-.43-.11-.59-.3-.17-.21-.25-.45-.25-.74v-3.17c0-.28.08-.53.25-.72.16-.21.35-.32.59-.32h18.85c.46,0,.85.28,1.17.83.32.55.49,1.12.49,1.71,0,.04,0,.07-.01.11t0,.03ZM322.52,85.51c-.05.45-.21.93-.46,1.42-.32.63-.71.95-1.17.95h-18.85c-.24,0-.43-.11-.59-.32-.17-.2-.25-.45-.25-.72v-3.17c0-.29.08-.53.25-.74.16-.2.35-.3.59-.3h18.85c.46,0,.85.28,1.17.83.32.54.49,1.1.49,1.69,0,.12-.01.24-.03.35Z"/>
    <path class="cls-9" d="M375.36,103.73c1.04-1.73,1.55-3.65,1.55-5.77v-13.12c0-2.11-.51-4.05-1.55-5.78-1.04-1.73-2.43-3.13-4.16-4.16-1.73-1.04-3.65-1.55-5.77-1.55h-18.05c-2.1,0-4.02.51-5.75,1.55-1.75,1.04-3.13,2.43-4.16,4.16-1.04,1.73-1.55,3.66-1.55,5.78v13.12c0,2.11.51,4.03,1.55,5.77,1.04,1.73,2.42,3.13,4.16,4.16,1.73,1.04,3.65,1.55,5.75,1.55h18.05c2.11,0,4.03-.51,5.77-1.55,1.73-1.04,3.13-2.43,4.16-4.16ZM367.07,97.96c0,.46-.16.84-.47,1.17-.33.32-.71.47-1.17.47h-18.05c-.45,0-.84-.16-1.16-.47-.33-.33-.49-.71-.49-1.17v-13.12c0-.45.16-.84.49-1.16.32-.32.71-.49,1.16-.49h18.05c.46,0,.84.17,1.17.49.32.32.47.71.47,1.16v13.12Z"/>
    <path class="cls-9" d="M419,73.34h-27.07c-2.1,0-4.02.51-5.75,1.55-1.75,1.04-3.13,2.43-4.16,4.16-1.04,1.73-1.55,3.66-1.55,5.78v13.12c0,2.11.51,4.03,1.55,5.77,1.04,1.73,2.42,3.13,4.16,4.16,1.73,1.04,3.65,1.55,5.75,1.55h18.05c2.11,0,4.03-.51,5.78-1.55,1.75-1.04,3.13-2.43,4.16-4.16,1.02-1.73,1.54-3.65,1.54-5.77v-8.21c0-.49-.13-.93-.39-1.33-.22-.35-.64-.55-1.06-.55h-20.18c-.22,0-.43.05-.62.17-.42.21-.7.64-.7,1.14v4.99c0,.72.59,1.31,1.31,1.31h10.97c.24,0,.43.08.59.24s.24.35.24.59v1.64c0,.46-.16.84-.47,1.17-.33.32-.71.47-1.17.47h-18.05c-.45,0-.84-.16-1.16-.47-.33-.33-.49-.71-.49-1.17v-14.29c0-.29.08-.53.24-.74.17-.2.37-.3.6-.3h28.54c.71,0,1.42-.39,1.64-1.05.11-.28.14-.55.14-.85v-4.91c0-.68-.24-1.27-.72-1.75-.47-.49-1.05-.72-1.73-.72Z"/>
    <path class="cls-9" d="M553.67,85.3c.93-2.19,1.41-4.53,1.41-7.03v-2.46c0-.68-.24-1.27-.72-1.75-.47-.49-1.05-.72-1.72-.72h-4.94c-.67,0-1.25.24-1.72.72-.49.47-.72,1.06-.72,1.75v2.46c0,2.26-.8,4.19-2.4,5.81-1.6,1.6-3.53,2.42-5.82,2.42h-4.9c-2.27,0-4.22-.81-5.82-2.42-1.6-1.62-2.4-3.55-2.4-5.81v-2.46c0-.68-.24-1.27-.71-1.75-.49-.49-1.06-.72-1.73-.72h-4.93c-.68,0-1.26.24-1.73.72-.49.47-.72,1.06-.72,1.75v2.46c0,2.5.47,4.83,1.42,7.03.93,2.19,2.23,4.11,3.89,5.77.11.1.16.21.16.34,0,.12-.05.24-.16.34-1.66,1.66-2.96,3.56-3.89,5.75-.95,2.18-1.42,4.52-1.42,7.01v2.47c0,.68.24,1.25.72,1.73.47.49,1.05.72,1.73.72h4.93c.67,0,1.25-.24,1.73-.72.47-.49.71-1.05.71-1.73v-2.47c0-2.26.8-4.19,2.4-5.79,1.6-1.6,3.55-2.4,5.82-2.4h4.9c2.29,0,4.22.8,5.82,2.4,1.6,1.6,2.4,3.53,2.4,5.79v2.47c0,.68.24,1.25.72,1.73.47.49,1.05.72,1.72.72h4.94c.67,0,1.25-.24,1.72-.72.49-.49.72-1.05.72-1.73v-2.47c0-2.5-.47-4.83-1.41-7.01-.95-2.19-2.25-4.1-3.9-5.75-.11-.11-.14-.22-.14-.34,0-.13.04-.24.14-.34,1.66-1.66,2.96-3.57,3.9-5.77Z"/>
    <path class="cls-9" d="M466.01,103.83v3.73c0,1.04-.84,1.88-1.88,1.88h-36.69c-.67,0-1.25-.23-1.73-.72-.47-.49-.72-1.05-.72-1.73v-31.17c0-.68.25-1.27.72-1.74.49-.49,1.06-.72,1.73-.72h36.71c1.02,0,1.85.83,1.85,1.85v6.5c0,.52-.42.94-.94.94h-29.39c-.24,0-.45.1-.6.3-.16.21-.24.45-.24.73v3.17c0,.27.08.53.24.72.16.21.37.31.6.31h20.91c.72,0,1.32.59,1.32,1.32v4.4c0,.56-.36,1.04-.86,1.22-.14.07-.3.09-.46.09h-20.91c-.24,0-.45.1-.6.32-.16.2-.24.45-.24.72v3.16c0,.29.08.53.24.74.16.2.37.3.6.3h26.64c1.92,0,3.49,1.46,3.69,3.31.01.13.01.25.01.38Z"/>
    <path class="cls-9" d="M510.55,103.83v3.73c0,1.04-.84,1.88-1.88,1.88h-36.69c-.67,0-1.25-.23-1.73-.72-.47-.49-.72-1.05-.72-1.73v-31.17c0-.68.25-1.27.72-1.74.49-.49,1.06-.72,1.73-.72h36.71c1.02,0,1.85.83,1.85,1.85v6.5c0,.52-.42.94-.94.94h-29.39c-.24,0-.45.1-.6.3-.16.21-.24.45-.24.73v3.17c0,.27.08.53.24.72.16.21.37.31.6.31h20.91c.72,0,1.32.59,1.32,1.32v4.4c0,.56-.36,1.04-.86,1.22-.14.07-.3.09-.46.09h-20.91c-.24,0-.45.1-.6.32-.16.2-.24.45-.24.72v3.16c0,.29.08.53.24.74.16.2.37.3.6.3h26.64c1.92,0,3.49,1.46,3.69,3.31.01.13.01.25.01.38Z"/>
  </g>
</svg>